<svg width="16" height="17" viewBox="0 0 16 17" fill="none" xmlns="http://www.w3.org/2000/svg" class="styles_tick__7wRuv"><g clip-path="url(#clip0_3410_2254)"><path fill-rule="evenodd" clip-rule="evenodd" d="M15.4383 1.28981C15.8331 1.72506 15.8003 2.39798 15.3651 2.79281C13.2594 4.70293 11.7848 6.32265 10.5579 8.23759C9.32681 10.1591 8.31627 12.4231 7.19117 15.655C7.0698 16.0036 6.77637 16.2644 6.41589 16.3441C6.05542 16.4239 5.67941 16.311 5.4224 16.0459L0.585871 11.0582C0.17678 10.6364 0.187143 9.96273 0.609019 9.55363C1.03089 9.14455 1.70453 9.15491 2.11361 9.57679L5.76381 13.341C6.70612 10.8291 7.63838 8.84966 8.76603 7.08958C10.129 4.96219 11.7483 3.20053 13.9353 1.21663C14.3705 0.821797 15.0434 0.854564 15.4383 1.28981Z" fill="#B6E2C9"></path></g><defs><clipPath id="clip0_3410_2254"><rect width="16" height="16" fill="white" transform="translate(0 0.655029)"></rect></clipPath></defs></svg>