<svg width="139" height="33" viewBox="0 0 139 33" fill="none" xmlns="http://www.w3.org/2000/svg" aria-label="Abode logo" class="styles_logo__EpvBJ "><path d="M138.318 17.7551C138.042 14.1269 136.819 11.4047 134.648 9.58986C132.476 7.77502 129.479 6.86914 125.659 6.86914C121.37 6.86914 118.051 8.00303 115.7 10.2708C113.349 12.5386 112.175 15.7492 112.175 19.8996C112.175 24.05 113.351 27.2606 115.7 29.5284C118.051 31.7962 121.37 32.9301 125.659 32.9301C129.424 32.9301 132.407 32.092 134.607 30.4143C135.868 29.4514 136.814 28.259 137.443 26.8339C138.216 25.0822 137.102 23.0717 135.215 22.7451L131.177 22.0488C130.136 21.8685 129.085 22.2644 128.398 23.0686C128.273 23.215 128.13 23.3475 127.968 23.4661C127.39 23.8929 126.622 24.1055 125.659 24.1055C124.696 24.1055 123.927 23.8174 123.349 23.2397C122.772 22.6619 122.428 21.8238 122.319 20.7238H135.349C136.988 20.7238 138.318 19.3943 138.318 17.7551ZM123.969 17.7551C123.286 17.7551 122.964 16.9154 123.468 16.4563C124.026 15.9479 124.754 15.6937 125.657 15.6937C126.372 15.6937 126.984 15.8802 127.492 16.2499C127.589 16.3208 127.678 16.3947 127.763 16.4748C128.248 16.9355 127.911 17.7551 127.242 17.7551H123.969Z" fill="#fff"></path><path d="M23.3372 11.0965C22.2927 9.7916 20.7813 8.76093 18.8017 8.0045C16.822 7.24806 14.5542 6.87061 11.9983 6.87061C9.77214 6.87061 7.61991 7.24806 5.54471 8.0045C5.00395 8.20169 4.49247 8.41276 4.01026 8.63923C2.13995 9.51583 1.74094 12.0039 3.22146 13.4459L5.27048 15.441C6.087 16.236 7.27943 16.464 8.35478 16.0896C9.10968 15.8262 10.0217 15.6952 11.0909 15.6952C11.8874 15.6952 12.6577 15.8262 13.4003 16.0865C14.1429 16.3484 14.679 16.6843 15.0087 17.0972V17.5101C9.31766 17.5101 5.39373 18.04 3.23687 19.0969C1.07847 20.1553 4.57764e-05 22.1827 4.57764e-05 25.1792C4.57764e-05 27.6534 0.639399 29.5638 1.91811 30.9103C3.19681 32.2568 5.01782 32.93 7.38111 32.93C8.00968 32.93 8.60436 32.8668 9.16206 32.7436C9.82606 32.6373 13.2092 31.9409 15.7851 28.5008L15.7436 28.701C15.3646 30.5436 16.7711 32.2691 18.6507 32.2691H21.9353C23.5745 32.2691 24.904 30.9395 24.904 29.3003V15.5273C24.904 13.8773 24.3818 12.4014 23.3372 11.095V11.0965ZM10.8228 20.8886C11.4406 20.6144 12.4235 20.4757 13.7716 20.4757H14.263C14.6744 20.4757 15.0087 20.81 15.0087 21.2214V23.3936C15.0087 23.6925 14.8284 23.9606 14.5542 24.0807C13.8887 24.3719 13.1892 24.5167 12.4513 24.5167C10.7458 24.5167 9.89539 23.8574 9.89539 22.5371C9.89539 21.7128 10.2051 21.1628 10.8228 20.8871V20.8886Z" fill="#fff"></path><path d="M49.6292 10.2709C47.8837 8.03855 45.4387 6.90774 42.2959 6.87231L42.299 6.86923C42.299 6.86923 38.09 6.53337 35.6481 9.7933L36.3121 3.97596C36.497 2.3537 35.2291 0.930176 33.5945 0.930176H29.498C27.9882 0.930176 26.7634 2.15496 26.7634 3.66476V29.5331C26.7634 31.0429 27.9882 32.2677 29.498 32.2677H33.3033C34.6945 32.2677 35.8022 31.2432 36.0056 29.9599C36.9638 31.2709 38.6785 32.6821 41.6673 32.9009C41.8229 32.9178 41.9816 32.9271 42.1433 32.9271C45.3601 32.9271 47.8544 31.7932 49.6276 29.5254C51.4009 27.2576 52.2867 24.0486 52.2867 19.8966C52.2867 15.7447 51.4009 12.5356 49.6276 10.2678L49.6292 10.2709ZM39.2177 24.5184C38.4197 24.5184 37.6648 24.349 36.953 24.0085C36.7743 23.9238 36.6619 23.7435 36.6619 23.5448V16.2546C36.6619 16.0574 36.7759 15.8772 36.953 15.7909C37.6648 15.452 38.4197 15.2809 39.2177 15.2809C41.1974 15.2809 42.1865 16.8216 42.1865 19.8997C42.1865 22.9778 41.1974 24.5184 39.2177 24.5184Z" fill="#fff"></path><path d="M85.1252 19.8995C85.1252 24.0499 86.0111 27.2606 87.7843 29.5284C89.5576 31.7961 92.0518 32.93 95.2686 32.93C95.4304 32.93 95.5891 32.9208 95.7447 32.9038C98.7334 32.6851 100.448 31.2739 101.406 29.9628C101.608 31.2446 102.717 32.2706 104.109 32.2706H107.914C109.424 32.2706 110.649 31.0459 110.649 29.5361V3.66769C110.649 2.15789 109.424 0.933105 107.914 0.933105H103.817C102.184 0.933105 100.915 2.35509 101.1 3.97889L101.764 9.79623C99.3235 6.5363 95.113 6.87215 95.113 6.87215L95.1161 6.87523C91.9733 6.91067 89.5283 8.04148 87.7828 10.2738C86.0095 12.5416 85.1237 15.7522 85.1237 19.9026L85.1252 19.8995ZM95.2286 19.8995C95.2286 16.8214 96.2176 15.2808 98.1973 15.2808C98.9954 15.2808 99.7502 15.4503 100.462 15.7907C100.641 15.8755 100.753 16.0557 100.753 16.2545V23.5446C100.753 23.7418 100.639 23.9221 100.462 24.0083C99.7502 24.3488 98.9954 24.5183 98.1973 24.5183C96.2176 24.5183 95.2286 22.9792 95.2286 19.8995Z" fill="#fff"></path><path d="M83.7092 17.661C83.4211 15.6705 81.9499 13.9466 79.8038 13.0269C80.5525 10.8777 80.1458 8.62842 78.7161 7.36358C77.1247 5.95546 74.7352 6.10644 72.9096 7.00462C71.9282 5.236 70.175 4.12214 68.4233 4.22536C66.972 4.31163 65.6194 5.21135 64.7505 6.62717C62.5674 5.49944 59.3753 5.76597 57.9302 7.93361C56.9041 9.47267 57.1306 11.3769 57.8794 12.8605C55.5515 13.7109 53.8584 15.5519 53.5533 17.661C53.1296 20.5974 55.305 23.2349 57.8501 24.3688C57.1214 26.1575 56.8595 28.5069 57.2893 29.8642C57.4757 30.4542 57.7869 30.8609 58.2137 31.0735C59.3907 31.6621 62.076 31.4279 64.0587 30.616C65.0309 31.8685 66.3096 32.6588 67.7115 32.8607C67.9426 32.8946 68.1753 32.91 68.4094 32.91C70.2119 32.91 72.0591 31.9378 73.3748 30.2863C74.7537 30.9025 76.2219 30.921 77.402 30.3171C79.5388 29.2217 80.2305 26.4563 79.6574 24.2564C82.0269 23.0963 84.1283 20.5466 83.7123 17.6626L83.7092 17.661ZM70.0286 17.6394C70.0286 18.6763 69.189 19.5159 68.1522 19.5159C67.1153 19.5159 66.2757 18.6763 66.2757 17.6394V16.2221C66.2757 15.1853 67.1153 14.3456 68.1522 14.3456C69.189 14.3456 70.0286 15.1853 70.0286 16.2221V17.6394ZM75.866 17.6394C75.866 18.6763 75.0264 19.5159 73.9895 19.5159C72.9527 19.5159 72.1131 18.6763 72.1131 17.6394V16.2221C72.1131 15.1853 72.9527 14.3456 73.9895 14.3456C75.0264 14.3456 75.866 15.1853 75.866 16.2221V17.6394Z" fill="#fff"></path></svg>